# xmcd CD database file
#
# Track frame offsets:
#	150
#	18259
#	30086
#	41213
#	52695
#	69785
#	71675
#	83883
#	96250
#	104611
#	116584
#	130884
#	147235
#	158257
#	177625
#	194786
#	222837
#
# Disc length: 3057 seconds
#
# Revision: 5
# Processed by: cddbd v1.5.2PL0 Copyright (c) Steve Scherf et al.
# Submitted via: CDex 1.70beta2
#
DISCID=e80bef11
DTITLE=The New Orleans Bingo! Show - Vol. 1: soft emergencies
DYEAR=2006
DGENRE=Jazz
TTITLE0=When the Walls Began to Break
TTITLE1=Airline Highway
TTITLE2=I Might Never Get it Right
TTITLE3=Lilttle Kitten
TTITLE4=Lookin for that Lucky Five
TTITLE5=Brynndarella Rockstar
TTITLE6=She Loves A Circus
TTITLE7=Requiem 9
TTITLE8=Precious
TTITLE9=Trailer By the Trashpile
TTITLE10=Solace
TTITLE11=Halloween
TTITLE12=Detective Song 2
TTITLE13=I Give it All to You
TTITLE14=Mid-City Baby
TTITLE15=Lullaby For Cloud 9
TTITLE16=Sparkles and Sprinkles
EXTD=YEAR: 2006
EXTT0=
EXTT1=
EXTT2=
EXTT3=
EXTT4=
EXTT5=
EXTT6=
EXTT7=
EXTT8=
EXTT9=
EXTT10=
EXTT11=
EXTT12=
EXTT13=
EXTT14=
EXTT15=
EXTT16=
PLAYORDER=
